<svg width="58" height="14" viewBox="0 0 58 14" fill="var(--colors-neutral-600)" xmlns="http://www.w3.org/2000/svg" data-sentry-element="svg" data-sentry-component="NewCertaLogo" data-sentry-source-file="NewCertaLogo.tsx"><g clip-path="url(#clip0_699_977)" data-sentry-element="g" data-sentry-source-file="NewCertaLogo.tsx"><path d="M4.72173 9.76355C3.90269 8.34887 3.51782 6.67395 3.45999 5.83124C0.588621 7.36222 -0.768858 10.1325 0.444531 12.244C1.65792 14.3651 4.72173 14.5691 7.48598 12.8351C6.78259 12.3603 5.53034 11.1887 4.72173 9.76451V9.76355Z" data-sentry-element="path" data-sentry-source-file="NewCertaLogo.tsx"></path><path d="M10.2506 9.76359C9.44102 11.1878 8.18971 12.3594 7.48633 12.8341C10.2506 14.5682 13.3144 14.3642 14.5278 12.2431C15.7412 10.1316 14.3837 7.3613 11.5133 5.83032C11.4554 6.67303 11.0706 8.34891 10.2515 9.76264L10.2506 9.76359Z" data-sentry-element="path" data-sentry-source-file="NewCertaLogo.tsx"></path><path d="M7.48625 4.95996C9.1139 4.95996 10.752 5.4633 11.5122 5.83222C11.6184 2.56721 9.91303 0 7.48625 0C5.05947 0 3.35409 2.56721 3.46026 5.83127C4.22147 5.4633 5.8586 4.95901 7.48625 4.95901V4.95996Z" data-sentry-element="path" data-sentry-source-file="NewCertaLogo.tsx"></path><path d="M40.6494 6.21829V11.4776H38.6842V2.51381H40.6494V3.60342C41.039 2.87701 41.6751 2.49951 42.9463 2.49951H43.5824V4.24308H42.4704C41.3433 4.24308 40.6503 4.79503 40.6503 6.21924L40.6494 6.21829ZM44.3474 9.24022V0.10199H46.3125V2.49951H48.5231V4.24308H46.3125V9.05146C46.3125 9.54527 46.4566 9.73402 46.9334 9.73402H48.5222V11.4776H46.4708C44.954 11.4776 44.3474 10.7655 44.3474 9.24022ZM18.8491 7.00285C18.8491 4.41657 20.8142 2.33936 23.5159 2.33936C25.8707 2.33936 27.5903 3.80647 28.0519 5.79694H25.9863C25.6251 4.80933 24.7587 4.12582 23.5159 4.12582C21.9414 4.12582 20.8578 5.33173 20.8578 7.00285C20.8578 8.67396 21.9414 9.86462 23.5159 9.86462C24.7587 9.86462 25.6251 9.18206 25.9863 8.1935H28.0519C27.5893 10.184 25.8707 11.6511 23.5159 11.6511C20.8142 11.6511 18.8491 9.57387 18.8491 7.00189V7.00285ZM57.9999 2.51381H56.0499V3.71972C55.5447 3.00761 54.4754 2.33936 53.189 2.33936C50.7622 2.33936 48.8985 4.43183 48.8985 7.00285C48.8985 9.57387 50.7622 11.652 53.189 11.652C54.4744 11.652 55.5437 10.9981 56.0499 10.2717V11.4776H57.9999V2.51381ZM53.5502 9.86462C51.9898 9.86462 50.8921 8.61486 50.8921 7.00285C50.8921 5.39084 51.9898 4.12582 53.5502 4.12582C55.1105 4.12582 56.2082 5.38988 56.2082 7.00285C56.2082 8.61581 55.1247 9.86462 53.5502 9.86462ZM33.151 2.33936C30.3915 2.33936 28.5714 4.34412 28.5714 7.00285C28.5714 9.66157 30.4787 11.652 33.1368 11.652C35.4195 11.652 36.9798 10.3298 37.4993 8.65966H35.4479C35.0431 9.51667 34.2051 9.92372 33.2088 9.92372C31.6343 9.92372 30.5792 8.84841 30.5214 7.4833H37.6007C37.8026 4.43278 35.8811 2.34031 33.151 2.34031V2.33936ZM35.5067 6.08769H30.5801C30.8399 4.70733 31.8807 3.98092 33.1083 3.98092C34.1919 3.98092 35.2033 4.63488 35.5067 6.08769Z" data-sentry-element="path" data-sentry-source-file="NewCertaLogo.tsx"></path></g><defs data-sentry-element="defs" data-sentry-source-file="NewCertaLogo.tsx"><clipPath id="clip0_699_977" data-sentry-element="clipPath" data-sentry-source-file="NewCertaLogo.tsx"><rect width="58" height="14" fill="white" data-sentry-element="rect" data-sentry-source-file="NewCertaLogo.tsx"></rect></clipPath></defs></svg>
